<svg xmlns="http://www.w3.org/2000/svg" viewBox="0 0 100 125" x="0px" y="0px"><g data-name="Layer 2"><path d="M23.17,32.59l4.11-2.37a3.08,3.08,0,0,0-3.08-5.33l-4.11,2.38a9.47,9.47,0,0,0-4.73,8.2V64.53a9.49,9.49,0,0,0,4.73,8.2L45.27,87.27a9.51,9.51,0,0,0,9.46,0L79.91,72.73a9.49,9.49,0,0,0,4.73-8.2V35.47a9.47,9.47,0,0,0-4.73-8.2L54.73,12.73a9.51,9.51,0,0,0-9.46,0L41.41,15a3.08,3.08,0,0,0,3.07,5.33l3.86-2.23a3.33,3.33,0,0,1,3.32,0L76.83,32.59a3.31,3.31,0,0,1,1.66,2.88V64.53a3.33,3.33,0,0,1-1.66,2.88L51.66,81.94a3.33,3.33,0,0,1-3.32,0L23.17,67.41a3.33,3.33,0,0,1-1.66-2.88V35.47A3.31,3.31,0,0,1,23.17,32.59Z"/><path d="M66.33,50A16.33,16.33,0,1,0,50,66.33,16.35,16.35,0,0,0,66.33,50ZM39.82,50A10.18,10.18,0,1,1,50,60.18,10.2,10.2,0,0,1,39.82,50Z"/></g><text x="0" y="115" fill="#000000" font-size="5px" font-weight="bold" font-family="'Helvetica Neue', Helvetica, Arial-Unicode, Arial, Sans-serif">Created by havid ika</text><text x="0" y="120" fill="#000000" font-size="5px" font-weight="bold" font-family="'Helvetica Neue', Helvetica, Arial-Unicode, Arial, Sans-serif">from the Noun Project</text></svg>